<?xml version="1.0" encoding="iso-8859-1"?>
<!-- Generator: Adobe Illustrator 19.0.0, SVG Export Plug-In . SVG Version: 6.00 Build 0)  -->
<svg version="1.1" id="Capa_1" xmlns="http://www.w3.org/2000/svg" xmlns:xlink="http://www.w3.org/1999/xlink" x="0px" y="0px"
	 viewBox="0 0 469.333 469.333" style="enable-background:new 0 0 469.333 469.333;" xml:space="preserve">
<g>
	
		<linearGradient id="SVGID_1_" gradientUnits="userSpaceOnUse" x1="-29.4103" y1="615.9684" x2="-29.4103" y2="572.5954" gradientTransform="matrix(10.6667 0 0 -10.6667 696.0395 6577.4448)">
		<stop  offset="0" style="stop-color:#FFBF3F"/>
		<stop  offset="1" style="stop-color:#FF6A8F"/>
	</linearGradient>
	<path style="fill:url(#SVGID_1_);" d="M463.161,201.803l-12.267-24.533l-15.509-31.008l-10.389-93.493V21.333
		C424.996,9.568,415.428,0,403.663,0h-42.667c-11.765,0-21.333,9.568-21.333,21.333v31.435l-10.389,93.493l-15.509,31.008
		l-12.267,24.533c-2.944,5.899-4.501,12.501-4.501,19.083V448c0,11.765,9.568,21.333,21.333,21.333h128
		c11.765,0,21.333-9.568,21.333-21.333V220.885C467.663,214.304,466.105,207.701,463.161,201.803z M360.996,21.333h42.667v21.333
		h-42.667V21.333z M359.876,64h44.907l8.299,74.667h-61.504L359.876,64z M346.255,160h72.149l8.747,17.504l-44.821,23.755
		l-44.821-23.765L346.255,160z M446.329,448h-128v-39.189l61.067,17.451c0.96,0.267,1.952,0.405,2.933,0.405
		s1.973-0.139,2.933-0.405l61.067-17.451V448z M446.329,386.624l-64,18.283l-64-18.283v-55.957h128V386.624z M446.329,309.333h-128
		v-88.448c0-3.296,0.779-6.592,2.251-9.547l7.381-14.763l49.365,26.176c1.568,0.832,3.285,1.248,5.003,1.248
		c1.717,0,3.435-0.416,4.992-1.237l49.365-26.176l7.381,14.763c1.483,2.944,2.261,6.24,2.261,9.536V309.333z"/>
	
		<linearGradient id="SVGID_2_" gradientUnits="userSpaceOnUse" x1="-59.4048" y1="615.9684" x2="-59.4048" y2="572.5954" gradientTransform="matrix(10.6667 0 0 -10.6667 696.0395 6577.4448)">
		<stop  offset="0" style="stop-color:#FFBF3F"/>
		<stop  offset="1" style="stop-color:#FF6A8F"/>
	</linearGradient>
	<path style="fill:url(#SVGID_2_);" d="M117.06,183.136c0-0.011,0-0.011-0.011-0.021l-10.453-57.045
		c-0.928-5.056-5.344-8.736-10.485-8.736H28.548c-5.152,0-9.557,3.68-10.485,8.736L5.241,196.021
		c-1.355,7.392-2.229,14.816-2.837,22.251c-0.373,4.619-0.619,9.237-0.715,13.835c-0.053,2.645,0.021,5.28,0.064,7.925
		c0.043,3.36,0.16,6.699,0.352,10.037c0.128,2.155,0.256,4.309,0.459,6.453c0.491,5.611,1.131,11.189,2.048,16.704l8.672,52.021
		C15.865,340.757,29.135,352,44.847,352h6.816v96h-32v21.333h85.333V448h-32v-96h6.816c15.712,0,28.981-11.243,31.563-26.741
		l8.672-52.021c1.067-6.421,1.856-12.853,2.368-19.296c1.525-19.328,0.523-38.741-2.987-57.92L117.06,183.136z M26.223,199.872
		l11.221-61.205h49.771l8.107,44.235c-11.637,18.805-32.075,30.432-54.325,30.432c-5.547,0-10.965-0.981-16.309-2.411
		C25.156,207.232,25.551,203.541,26.223,199.872z M101.284,248.299c-0.107,1.739-0.139,3.477-0.288,5.216
		c-0.459,5.419-1.088,10.837-1.984,16.235l-8.672,52.021c-0.864,5.141-5.291,8.896-10.528,8.896H44.847
		c-5.237,0-9.664-3.755-10.517-8.907l-8.672-52.021c-1.013-6.037-1.728-12.139-2.176-18.293c-0.011-0.171,0-0.331-0.021-0.501
		c-0.416-6.027-0.587-12.107-0.459-18.208c5.909,1.28,11.915,1.931,17.995,1.931c22.315,0,43.339-8.715,58.987-23.68
		c0.149,1.195,0.373,2.389,0.501,3.584c0.224,2.027,0.395,4.064,0.555,6.091c0.277,3.477,0.448,6.955,0.533,10.443
		c0.053,2.016,0.107,4.032,0.107,6.059C101.668,240.875,101.508,244.587,101.284,248.299z"/>
	
		<linearGradient id="SVGID_3_" gradientUnits="userSpaceOnUse" x1="-45.4043" y1="615.9684" x2="-45.4043" y2="572.5954" gradientTransform="matrix(10.6667 0 0 -10.6667 696.0395 6577.4448)">
		<stop  offset="0" style="stop-color:#FFBF3F"/>
		<stop  offset="1" style="stop-color:#FF6A8F"/>
	</linearGradient>
	<path style="fill:url(#SVGID_3_);" d="M266.393,183.136c0-0.011,0-0.011-0.011-0.021l-10.453-57.045
		c-0.928-5.056-5.344-8.736-10.485-8.736h-67.552c-5.152,0-9.557,3.68-10.485,8.736l-12.821,69.952
		c-1.355,7.392-2.229,14.816-2.837,22.251c-0.373,4.619-0.619,9.237-0.715,13.835c-0.053,2.645,0.021,5.28,0.064,7.925
		c0.043,3.36,0.16,6.699,0.352,10.037c0.128,2.155,0.256,4.309,0.459,6.453c0.491,5.611,1.131,11.189,2.048,16.704l8.672,52.021
		C165.199,340.757,178.468,352,194.18,352h6.816v96h-32v21.333h85.333V448h-32v-96h6.816c15.712,0,28.981-11.243,31.563-26.741
		l8.672-52.021c1.067-6.421,1.856-12.853,2.368-19.296c1.525-19.328,0.523-38.741-2.987-57.92L266.393,183.136z M175.556,199.872
		l11.221-61.205h49.771l8.107,44.235c-11.637,18.805-32.075,30.432-54.325,30.432c-5.547,0-10.965-0.981-16.309-2.411
		C174.489,207.232,174.884,203.541,175.556,199.872z M250.617,248.299c-0.107,1.739-0.139,3.477-0.288,5.216
		c-0.459,5.419-1.088,10.837-1.984,16.235l-8.672,52.021c-0.864,5.141-5.291,8.896-10.528,8.896H194.18
		c-5.237,0-9.664-3.755-10.517-8.907l-8.672-52.021c-1.003-6.037-1.728-12.139-2.165-18.293c-0.011-0.171,0-0.331-0.021-0.501
		c-0.416-6.027-0.587-12.107-0.459-18.208c5.899,1.28,11.904,1.931,17.984,1.931c22.315,0,43.339-8.715,58.987-23.68
		c0.149,1.195,0.373,2.389,0.501,3.584c0.224,2.027,0.395,4.064,0.555,6.091c0.277,3.477,0.448,6.955,0.533,10.443
		c0.053,2.016,0.107,4.032,0.107,6.059C251.001,240.875,250.841,244.587,250.617,248.299z"/>
	
		<linearGradient id="SVGID_4_" gradientUnits="userSpaceOnUse" x1="-52.4103" y1="615.9684" x2="-52.4103" y2="572.5954" gradientTransform="matrix(10.6667 0 0 -10.6667 696.0395 6577.4448)">
		<stop  offset="0" style="stop-color:#FFBF3F"/>
		<stop  offset="1" style="stop-color:#FF6A8F"/>
	</linearGradient>
	<rect x="126.329" y="21.333" style="fill:url(#SVGID_4_);" width="21.333" height="21.333"/>
	
		<linearGradient id="SVGID_5_" gradientUnits="userSpaceOnUse" x1="-57.4103" y1="615.9684" x2="-57.4103" y2="572.5954" gradientTransform="matrix(10.6667 0 0 -10.6667 696.0395 6577.4448)">
		<stop  offset="0" style="stop-color:#FFBF3F"/>
		<stop  offset="1" style="stop-color:#FF6A8F"/>
	</linearGradient>
	<rect x="72.996" y="64" style="fill:url(#SVGID_5_);" width="21.333" height="21.333"/>
	
		<linearGradient id="SVGID_6_" gradientUnits="userSpaceOnUse" x1="-47.4103" y1="615.9684" x2="-47.4103" y2="572.5954" gradientTransform="matrix(10.6667 0 0 -10.6667 696.0395 6577.4448)">
		<stop  offset="0" style="stop-color:#FFBF3F"/>
		<stop  offset="1" style="stop-color:#FF6A8F"/>
	</linearGradient>
	<rect x="179.663" y="64" style="fill:url(#SVGID_6_);" width="21.333" height="21.333"/>
</g>
<g>
</g>
<g>
</g>
<g>
</g>
<g>
</g>
<g>
</g>
<g>
</g>
<g>
</g>
<g>
</g>
<g>
</g>
<g>
</g>
<g>
</g>
<g>
</g>
<g>
</g>
<g>
</g>
<g>
</g>
</svg>
