<?xml version="1.0" encoding="iso-8859-1"?>
<!-- Generator: Adobe Illustrator 19.0.0, SVG Export Plug-In . SVG Version: 6.00 Build 0)  -->
<svg version="1.1" id="Capa_1" xmlns="http://www.w3.org/2000/svg" xmlns:xlink="http://www.w3.org/1999/xlink" x="0px" y="0px"
	 viewBox="0 0 511.999 511.999" style="enable-background:new 0 0 511.999 511.999;" xml:space="preserve">
<g transform="matrix(1.25 0 0 -1.25 0 45)">
	<path style="fill:#FFAC33;" d="M129.626-20.027l-0.12-39.916l64.228,16.649l-35.267,24.012L129.626-20.027z"/>
	<g>
		<path style="fill:#FFAC33;" d="M387.385-229.274c0,13.67,9.141,24.877,21.021,26.883v140.047C360.358-50.789,0-148.723,0-148.723
			v-42.475c18.786-3.531,33.033-19.964,33.033-39.796c0-19.82-14.247-36.252-33.033-39.783v-92.684l408.406,77.874v29.442
			C396.526-254.139,387.385-242.932,387.385-229.274"/>
		<path style="fill:#FFD983;" d="M175.199,25.861l-46.162-46.162c8.841-2.066,15.111-7.099,15.111-12.985
			c0-7.748-10.763-14.018-24.024-14.018c-5.693,0-10.847,1.201-14.967,3.123L0.004-149.333
			c158.161,34.955,264.767,63.483,409.595,86.786C351.21,15.327,214.13,25.861,175.199,25.861"/>
		<g>
			<path style="fill:#FFAC33;" d="M228.227-9.265c0-7.748-10.751-14.018-24.024-14.018c-13.261,0-24.024,6.27-24.024,14.018
				c0,7.735,10.763,14.018,24.024,14.018C217.476,4.753,228.227-1.529,228.227-9.265"/>
			<path style="fill:#FFAC33;" d="M169.028-86.088c0-11.759-16.324-21.273-36.469-21.273c-20.132,0-36.469,9.513-36.469,21.273
				c0,11.735,16.336,21.261,36.469,21.261C152.704-64.827,169.028-74.352,169.028-86.088"/>
			<path style="fill:#FFAC33;" d="M336.334-47.53c0-13.141-18.258-23.796-40.793-23.796c-22.522,0-40.793,10.654-40.793,23.796
				s18.271,23.796,40.793,23.796C318.076-23.735,336.334-34.39,336.334-47.53"/>
		</g>
		<g>
			<path style="fill:#F4900C;" d="M391.889-134.828c0-16-11.759-28.961-26.282-28.961c-14.498,0-26.27,12.961-26.27,28.961
				c0,15.988,11.772,28.961,26.27,28.961C380.13-105.867,391.889-118.84,391.889-134.828"/>
			<path style="fill:#F4900C;" d="M124.624-193.239c0-15.075-11.087-27.291-24.781-27.291c-13.681,0-24.768,12.216-24.768,27.291
				c0,15.087,11.087,27.303,24.768,27.303C113.537-165.935,124.624-178.151,124.624-193.239"/>
			<path style="fill:#F4900C;" d="M330.704-253.053c-6.042-7.231-16.276-8.649-22.859-3.147c-6.57,5.489-6.991,15.832-0.925,23.051
				c6.054,7.267,16.289,8.672,22.859,3.183C336.362-235.467,336.77-245.797,330.704-253.053"/>
			<path style="fill:#F4900C;" d="M214.38-164.429c-8.132-9.742-21.922-11.652-30.787-4.228c-8.829,7.387-9.406,21.285-1.237,31.015
				c8.168,9.777,21.934,11.675,30.774,4.277C221.983-140.766,222.548-154.652,214.38-164.429"/>
			<path style="fill:#F4900C;" d="M224.86-284.724c-14.414-19.267-40.288-24.264-57.754-11.207
				c-17.477,13.069-19.976,39.315-5.562,58.558c14.414,19.292,40.288,24.3,57.754,11.231
				C236.776-239.212,239.274-265.445,224.86-284.724"/>
		</g>
	</g>
</g>
<g>
</g>
<g>
</g>
<g>
</g>
<g>
</g>
<g>
</g>
<g>
</g>
<g>
</g>
<g>
</g>
<g>
</g>
<g>
</g>
<g>
</g>
<g>
</g>
<g>
</g>
<g>
</g>
<g>
</g>
</svg>
