<?xml version="1.0" encoding="iso-8859-1"?>
<!-- Generator: Adobe Illustrator 19.0.0, SVG Export Plug-In . SVG Version: 6.00 Build 0)  -->
<svg version="1.1" id="Capa_1" xmlns="http://www.w3.org/2000/svg" xmlns:xlink="http://www.w3.org/1999/xlink" x="0px" y="0px"
	 viewBox="0 0 512 512" style="enable-background:new 0 0 512 512;" xml:space="preserve">
<g transform="matrix(1.25 0 0 -1.25 0 45)">
	<g>
		<path style="fill:#FFD983;" d="M204.8-84.471C96.376-84.471,0-126.166,0-192.894c0-50.043,48.188-91.738,120.471-91.738
			c41.61,0,85.667,25.118,117.182,25.118c1.108,0,2.205-0.036,3.289-0.097c47.092-2.831,48.188-41.707,108.424-41.707
			c28.203,0,60.235,25.022,60.235,83.402C409.6-142.851,325.271-84.471,204.8-84.471"/>
		<path style="fill:#FFD983;" d="M385.506-168.8H409.6v-48.188h-24.094V-168.8z"/>
		<path style="fill:#FFD983;" d="M0-144.706h24.094v-48.188H0V-144.706z"/>
	</g>
	<path style="fill:#A0041E;" d="M349.365-244.789c-27.347,0-39.538,9.096-53.67,19.613c-12.878,9.601-27.48,20.468-53.706,22.059
		c-1.433,0.084-2.867,0.133-4.337,0.133c-17.264,0-35.876-5.83-55.585-11.999c-20.624-6.445-41.936-13.119-61.597-13.119
		c-62.825,0-108.424,35.081-108.424,83.402c0,65.006,99.316,100.075,192.753,100.075c111.689,0,192.753-52.609,192.753-125.109
		C397.553-224.802,368.724-244.789,349.365-244.789"/>
	<g>
		<path style="fill:#FFE8B6;" d="M204.8-36.282C96.376-36.282,0-77.978,0-144.706c0-50.043,48.188-91.738,120.471-91.738
			c41.61,0,85.667,25.118,117.182,25.118c1.108,0,2.205-0.036,3.289-0.097c47.092-2.831,48.188-41.707,108.424-41.707
			c28.203,0,60.235,25.022,60.235,83.402C409.6-94.663,325.271-36.282,204.8-36.282 M204.8-52.968
			c104.701,0,180.706-49.104,180.706-116.76c0-49.923-24.829-66.717-36.141-66.717c-22.094,0-31.142,6.734-44.851,16.95
			c-13.637,10.167-30.636,22.817-61.488,24.684c-1.771,0.108-3.554,0.168-5.373,0.168c-19.854,0-39.622-6.192-60.549-12.734
			c-19.456-6.096-39.575-12.385-56.634-12.385c-47.899,0.001-96.376,25.782-96.376,75.054
			C24.094-85.121,117.205-52.968,204.8-52.968"/>
		<path style="fill:#FFE8B6;" d="M182.641-53.666c0,0,34.201,0.699,58.295-15.975c12.047-8.349,4.036-27.106,4.036-27.106
			l20.058-6.264c0,0-0.735,10.072,36.141,16.685c27.118,4.867,54.718-16.685,54.718-16.685s-30.623,41.707-90.859,50.043
			S182.641-53.666,182.641-53.666"/>
	</g>
	<path style="fill:#E6E7E8;" d="M289.129-119.681c0-18.42-21.577-33.37-48.188-33.37s-48.188,14.951-48.188,33.37
		s21.577,33.358,48.188,33.358C267.553-86.322,289.129-101.26,289.129-119.681"/>
	<path style="fill:#A7A9AC;" d="M265.035-119.681c0-9.216-10.782-16.685-24.094-16.685c-13.3,0-24.094,7.469-24.094,16.685
		s10.795,16.673,24.094,16.673C254.253-103.007,265.035-110.465,265.035-119.681"/>
</g>
<g>
</g>
<g>
</g>
<g>
</g>
<g>
</g>
<g>
</g>
<g>
</g>
<g>
</g>
<g>
</g>
<g>
</g>
<g>
</g>
<g>
</g>
<g>
</g>
<g>
</g>
<g>
</g>
<g>
</g>
</svg>
