<?xml version="1.0" encoding="iso-8859-1"?>
<!-- Generator: Adobe Illustrator 19.0.0, SVG Export Plug-In . SVG Version: 6.00 Build 0)  -->
<svg version="1.1" id="Capa_1" xmlns="http://www.w3.org/2000/svg" xmlns:xlink="http://www.w3.org/1999/xlink" x="0px" y="0px"
	 viewBox="0 0 512 512" style="enable-background:new 0 0 512 512;" xml:space="preserve">
<path style="fill:#F5CA26;" d="M507,420.718H5c-2.761,0-5-2.239-5-5v-41.885c0-2.761,2.239-5,5-5h502c2.761,0,5,2.239,5,5v41.885
	C512,418.479,509.761,420.718,507,420.718z"/>
<path style="fill:#EAAF13;" d="M511.996,373.986v41.578c0,2.847-2.3,5.157-5.157,5.157h-40.02c2.847,0,5.157-2.31,5.157-5.157
	v-41.578c0-2.847-2.31-5.157-5.157-5.157h40.02C509.695,368.829,511.996,371.141,511.996,373.986z"/>
<path style="fill:#DB8137;" d="M441.921,223.128c0.163-1.322,0.247-6.951,0.247-8.317c0-15.524-10.827-28.517-25.341-31.847
	c-2.407-0.552-4.118-2.685-4.058-5.154c0.156-6.463,0.342-11.828-2.352-18.629c-1.604-4.051-4.028-7.765-7.08-10.871
	c-6.111-6.221-14.592-9.779-23.312-9.779c-5.594,0-10.857,1.41-15.459,3.89c-2.135,1.151-4.761,0.539-6.354-1.29
	c-6.944-7.971-17.167-13.01-28.569-13.01c-7.863,0-15.162,2.4-21.214,6.504c-2.593,1.758-6.116,0.696-7.483-2.123
	c-8.05-16.609-25.062-28.064-44.757-28.064c-5.198,0-10.205,0.805-14.913,2.287c-1.76,0.554-3.666,0.145-5.039-1.086
	c-9.964-8.929-23.126-14.36-37.559-14.36c-26.808,0-49.225,18.741-54.899,43.834c-0.612,2.707-3.23,4.439-5.96,3.943
	c-1.168-0.212-2.358-0.362-3.566-0.446c-19.011-1.32-34.953,14.314-34.953,33.371v5.937c0,2.424-1.695,4.494-4.058,5.031
	c-14.548,3.304-25.409,16.314-25.409,31.862c0,3.006,0.406,5.552,1.166,8.317v0.366v14.671h371.228v-15.037H441.921z"/>
<path style="fill:#D86C1A;" d="M442.163,214.807c0-15.522-10.823-28.516-25.334-31.847c-2.407-0.553-4.116-2.69-4.056-5.159
	c0.211-8.613,0.536-15.934-5.069-23.973c-6.074-8.71-16.22-15.075-26.997-15.295c-5.799-0.118-11.263,1.28-16.024,3.82
	c-2.173,1.159-4.815,0.688-6.43-1.171c-6.946-7.997-17.188-13.06-28.608-13.06c-7.868,0-15.165,2.399-21.214,6.501
	c-2.593,1.759-6.117,0.697-7.483-2.123c-8.051-16.61-25.069-28.066-44.757-28.066c-5.198,0-10.206,0.806-14.914,2.291
	c-1.76,0.555-3.667,0.147-5.042-1.084c-9.969-8.931-23.129-14.363-37.557-14.363c-22.253,0-41.477,12.912-50.616,31.647
	c7.566-3.773,16.089-5.898,25.111-5.898c14.395,0,27.537,5.406,37.49,14.301c1.418,1.267,3.382,1.688,5.197,1.119
	c4.682-1.467,9.66-2.263,14.826-2.263c19.663,0,36.647,11.415,44.714,27.977c1.395,2.864,4.967,3.938,7.608,2.157
	c6.035-4.069,13.307-6.447,21.132-6.447c11.382,0,21.6,5.028,28.54,12.977c1.633,1.871,4.381,2.376,6.576,1.214
	c7.154-3.787,15.592-4.603,23.442-2.832c7.424,1.675,15.243,5.823,19.504,12.538c5.121,8.07,4.997,16.498,4.999,25.772
	c0,2.498,1.748,4.627,4.182,5.189c8.506,1.965,15.746,7.258,20.271,14.429h0.013v15.005h30.497v-18.333h-0.084
	C442.134,217.839,442.163,215.604,442.163,214.807z"/>
<path style="fill:#F45151;" d="M439.671,222.528H72.329c-7.188,0-13.744,4.081-16.917,10.531
	c-9.854,20.036-29.455,67.793-32.615,135.774h466.405c-3.16-67.981-22.761-115.738-32.615-135.774
	C453.415,226.609,446.859,222.528,439.671,222.528z"/>
<path style="fill:#F42F2F;" d="M489.201,368.829h-39.195c-3.156-67.983-22.764-115.739-32.615-135.77
	c-3.167-6.447-9.727-10.531-16.916-10.531h39.195c7.189,0,13.749,4.085,16.916,10.531
	C466.436,253.09,486.044,300.846,489.201,368.829z"/>
<path style="fill:#E9EFF4;" d="M204.243,315.992c0-0.006,0-0.012,0-0.018c-0.001-0.969,0.766-1.762,1.734-1.762h100.047
	c0.969,0,1.735,0.793,1.734,1.762c0,0.006,0,0.012,0,0.018c0,13.592,11.332,24.538,25.064,23.904
	c12.361-0.57,22.348-10.678,22.781-23.044c0.313-8.927-4.269-16.805-11.267-21.172c6.998-4.367,11.58-12.245,11.267-21.172
	c-0.433-12.367-10.42-22.474-22.781-23.045c-13.732-0.634-25.064,10.312-25.064,23.904c0,0.006,0,0.012,0,0.018
	c0.001,0.969-0.766,1.762-1.734,1.762H205.977c-0.969,0-1.735-0.793-1.734-1.762c0-0.006,0-0.012,0-0.018
	c0-13.592-11.332-24.538-25.064-23.904c-12.361,0.571-22.348,10.678-22.781,23.045c-0.313,8.927,4.269,16.804,11.267,21.171
	c-6.998,4.367-11.58,12.245-11.267,21.171c0.433,12.367,10.42,22.474,22.781,23.045C192.911,340.53,204.243,329.585,204.243,315.992
	z"/>
<g>
</g>
<g>
</g>
<g>
</g>
<g>
</g>
<g>
</g>
<g>
</g>
<g>
</g>
<g>
</g>
<g>
</g>
<g>
</g>
<g>
</g>
<g>
</g>
<g>
</g>
<g>
</g>
<g>
</g>
</svg>
